<?xml version="1.0" standalone="no"?>

<svg version="1.0" xmlns="http://www.w3.org/2000/svg"
 width="1139.000000pt" height="1140.000000pt" viewBox="0 0 1139.000000 1140.000000"
 preserveAspectRatio="xMidYMid meet">

<g transform="translate(0.000000,1140.000000) scale(0.100000,-0.100000)"
fill="#000000" stroke="none">
<path d="M5765 11252 l-230 -147 -161 -327 -162 -326 -48 -7 c-27 -3 -123 -17
-214 -30 -90 -14 -167 -22 -171 -17 -9 10 -229 571 -229 584 0 6 21 49 46 96
l46 84 -17 59 c-10 33 -22 59 -27 59 -13 0 -442 -388 -450 -408 -5 -9 -39
-170 -78 -356 -38 -187 -73 -343 -77 -347 -5 -4 -48 -24 -98 -44 -49 -20 -139
-59 -198 -87 -60 -28 -109 -49 -111 -47 -2 2 -88 118 -191 258 l-188 253 21
92 c12 50 22 97 22 104 0 17 -58 102 -70 102 -4 0 -81 -113 -170 -251 l-162
-250 22 -367 22 -367 -27 -20 c-16 -11 -84 -65 -153 -120 -68 -55 -135 -106
-147 -114 -21 -14 -34 -5 -272 180 l-250 194 -7 105 -6 105 -47 42 c-31 26
-50 37 -54 30 -4 -7 -46 -137 -95 -291 l-88 -278 114 -337 c62 -185 115 -341
117 -346 2 -6 -31 -56 -74 -111 -43 -55 -100 -133 -128 -172 -35 -52 -53 -71
-64 -67 -9 3 -143 61 -298 127 l-281 121 -28 99 -28 100 -57 29 c-52 26 -58
27 -63 11 -2 -9 -10 -147 -17 -307 l-12 -290 201 -306 202 -306 -31 -74 c-18
-41 -54 -132 -80 -204 -29 -78 -53 -130 -61 -129 -7 0 -152 21 -321 45 l-308
44 -52 87 c-29 48 -57 90 -63 92 -6 2 -36 7 -68 11 -45 6 -55 5 -52 -6 3 -8
30 -131 61 -274 31 -143 59 -271 62 -283 3 -14 115 -121 282 -270 157 -140
275 -253 274 -262 -1 -8 -8 -71 -17 -140 -8 -69 -18 -158 -22 -198 -3 -41 -11
-75 -18 -77 -6 -2 -150 -22 -321 -43 l-310 -39 -72 69 -72 69 -68 -3 c-37 -2
-67 -7 -66 -11 1 -4 63 -126 137 -271 l136 -264 292 -143 c160 -79 310 -153
332 -164 39 -19 41 -23 49 -80 5 -33 19 -127 33 -209 13 -82 23 -151 21 -152
-1 -2 -137 -57 -301 -123 l-299 -121 -92 50 -92 50 -61 -21 c-74 -25 -95 9
162 -272 150 -164 195 -208 220 -213 17 -3 179 -36 361 -72 l330 -67 43 -100
c23 -55 63 -144 89 -198 40 -84 45 -99 32 -111 -8 -7 -125 -97 -260 -199
l-246 -186 -100 26 -100 25 -52 -37 c-29 -21 -48 -42 -44 -46 5 -5 119 -78
253 -164 178 -113 253 -155 275 -155 16 0 165 9 330 20 165 11 321 20 346 20
l46 0 114 -142 c63 -78 122 -152 133 -165 12 -16 15 -27 8 -36 -5 -6 -96 -123
-201 -259 l-192 -248 -99 0 -98 0 -46 -52 c-26 -29 -43 -54 -39 -55 262 -84
557 -173 572 -173 11 0 166 49 343 109 178 60 333 112 345 115 18 6 50 -13
164 -98 77 -58 154 -114 170 -123 22 -13 29 -23 25 -38 -3 -11 -59 -148 -125
-305 l-120 -285 -83 -25 c-117 -36 -113 -33 -142 -96 -14 -31 -25 -58 -24 -59
2 -1 138 -7 303 -14 l300 -11 310 206 310 207 40 -15 c65 -25 339 -129 351
-132 7 -3 -3 -108 -31 -330 -23 -179 -43 -327 -46 -329 -2 -2 -39 -25 -82 -52
-43 -26 -81 -55 -86 -64 -5 -9 -12 -40 -16 -70 -7 -49 -6 -53 11 -48 11 3 144
34 297 68 l278 63 237 275 c130 151 240 278 243 283 3 5 57 2 120 -6 63 -9
158 -18 211 -22 l97 -7 5 -36 c9 -54 76 -597 76 -611 0 -7 -32 -45 -71 -86
l-71 -73 8 -65 9 -65 272 142 272 142 32 70 c86 185 290 591 301 597 12 6 347
59 392 62 16 1 39 -49 141 -301 l122 -302 -49 -87 c-26 -48 -48 -90 -48 -95 0
-4 15 -33 34 -64 l33 -55 214 203 214 204 64 324 c36 178 69 343 73 366 9 40
12 43 76 68 37 15 127 54 200 87 73 34 134 59 136 57 1 -2 90 -119 196 -259
l193 -255 -22 -90 c-12 -49 -21 -96 -21 -104 0 -15 61 -110 70 -111 4 0 302
466 323 505 2 6 -6 159 -19 340 -33 458 -39 403 55 474 43 33 116 92 162 130
46 39 87 71 91 71 5 0 123 -89 263 -197 l255 -196 1 -86 c1 -47 4 -96 7 -107
10 -32 94 -99 103 -82 4 7 45 137 93 289 l85 276 -119 344 c-66 189 -120 348
-120 352 0 5 44 68 99 140 54 73 111 151 126 174 l27 42 37 -15 c20 -8 155
-65 301 -125 l265 -110 29 -98 28 -98 59 -28 c32 -16 60 -27 62 -24 2 2 9 139
15 304 l10 300 -204 303 c-112 166 -204 307 -204 312 0 5 22 65 48 132 27 68
60 154 73 192 13 37 29 71 36 73 12 5 544 -59 615 -73 22 -4 39 -24 78 -89 53
-88 56 -90 133 -101 33 -4 47 -3 47 5 0 11 -115 524 -127 564 -2 10 -131 126
-285 259 l-280 240 5 37 c3 20 13 116 23 214 11 104 22 177 29 177 5 0 145 18
310 40 165 22 306 40 312 40 7 0 47 -32 88 -71 l75 -71 65 7 66 7 -49 91 c-27
51 -91 173 -143 271 l-94 180 -332 162 -332 163 -6 48 c-6 40 -53 337 -58 367
-2 9 568 245 595 246 9 0 53 -16 97 -36 l80 -37 61 23 c33 12 60 25 60 27 0 3
-89 100 -197 217 -108 116 -199 214 -203 218 -5 7 -692 138 -719 138 -5 0 -21
30 -36 68 -15 37 -54 127 -87 200 -34 73 -59 134 -57 136 2 2 112 85 244 186
132 101 245 187 251 191 6 5 54 -2 110 -16 l99 -24 52 36 c29 20 50 39 48 43
-3 4 -118 78 -256 165 l-251 158 -316 -22 c-174 -12 -339 -24 -367 -27 l-50
-5 -38 51 c-21 28 -84 105 -139 171 -70 84 -97 123 -90 132 31 41 368 482 372
488 3 5 54 11 113 15 l107 7 35 43 c19 23 35 46 35 51 0 4 -129 47 -287 96
l-288 87 -344 -120 -344 -119 -126 93 c-69 51 -150 108 -178 127 -29 19 -53
37 -53 41 0 11 232 571 242 585 5 6 21 14 36 18 15 3 58 16 95 27 68 20 69 21
93 76 13 30 22 58 18 61 -3 3 -140 10 -304 15 l-298 9 -296 -202 c-163 -110
-300 -201 -305 -201 -5 0 -54 18 -110 41 -55 22 -145 55 -198 73 -54 19 -99
39 -101 46 -7 20 70 614 81 628 6 7 45 34 88 59 80 49 82 51 94 135 6 42 5 46
-11 42 -11 -2 -145 -33 -299 -69 -153 -36 -284 -71 -291 -78 -6 -6 -105 -122
-219 -257 -114 -135 -216 -254 -226 -264 -17 -18 -21 -19 -191 -1 -95 10 -174
19 -176 20 -4 3 -122 622 -122 639 0 6 25 46 55 88 l54 77 -12 66 -12 65 -230
-148z m380 -1157 c900 -96 1739 -455 2421 -1035 155 -132 410 -393 536 -546
223 -273 379 -513 538 -829 244 -486 381 -945 452 -1525 18 -142 18 -778 0
-920 -26 -210 -63 -419 -107 -595 -390 -1578 -1604 -2808 -3177 -3219 -1231
-322 -2540 -95 -3603 625 -619 419 -1126 1001 -1465 1681 -233 469 -372 942
-442 1508 -18 142 -18 778 0 920 72 581 207 1039 452 1525 219 436 467 780
805 1121 236 237 434 400 705 581 624 416 1378 669 2150 723 168 12 562 4 735
-15z"/>
<path d="M5390 9759 c-1248 -98 -2375 -752 -3066 -1779 -118 -176 -178 -279
-273 -469 -562 -1126 -570 -2442 -22 -3576 379 -784 975 -1407 1741 -1820 458
-246 938 -396 1485 -461 209 -25 670 -26 875 -1 955 116 1776 508 2435 1162
964 956 1388 2340 1124 3670 -108 543 -312 1033 -623 1495 -756 1124 -2039
1799 -3395 1789 -97 -1 -223 -6 -281 -10z m481 -389 c200 -10 350 -28 519 -61
974 -190 1817 -751 2367 -1574 664 -995 798 -2270 356 -3385 -468 -1181 -1506
-2034 -2753 -2264 -228 -42 -405 -57 -665 -57 -602 0 -1134 127 -1665 397
-359 183 -646 390 -930 674 -363 362 -634 774 -823 1250 -386 972 -337 2062
133 3000 588 1173 1776 1951 3080 2019 80 5 156 9 170 9 14 1 109 -3 211 -8z"/>
</g>
</svg>
